<svg xmlns="http://www.w3.org/2000/svg" xmlns:xlink="http://www.w3.org/1999/xlink" width="260" height="260" version="1.1" viewBox="0 0 260 260"><title>Slice 1</title><desc>Created with Sketch.</desc><g id="Page-1" fill="none" fill-rule="evenodd" stroke="none" stroke-width="1"><g id="Server" fill="#D8D8D8" transform="translate(17.000000, 24.000000)"><g id="Left-Arrow-Copy-+-Left-Arrow-Copy-+-Oval-1" transform="translate(0.000000, 150.000000)"><path id="Left-Arrow-Copy" d="M226,0.301921846 L0.307178569,0.301921846 L0.307178569,62.394793 L226,62.394793 L226,0.301921846 Z M173,19 L13,19 L13,44.0464356 L173,44.0464356 L173,19 Z M195.5,44 C202.403559,44 208,38.4035594 208,31.5 C208,24.5964406 202.403559,19 195.5,19 C188.596441,19 183,24.5964406 183,31.5 C183,38.4035594 188.596441,44 195.5,44 Z"/></g><g id="Left-Arrow-Copy-+-Left-Arrow-Copy-+-Oval-1" transform="translate(0.000000, 75.000000)"><path id="Left-Arrow-Copy" d="M226,0.301921846 L0.307178569,0.301921846 L0.307178569,62.394793 L226,62.394793 L226,0.301921846 Z M173,19 L13,19 L13,44.0464356 L173,44.0464356 L173,19 Z M195.5,44 C202.403559,44 208,38.4035594 208,31.5 C208,24.5964406 202.403559,19 195.5,19 C188.596441,19 183,24.5964406 183,31.5 C183,38.4035594 188.596441,44 195.5,44 Z"/></g><g id="Left-Arrow-Copy-+-Left-Arrow-Copy-+-Oval-1"><path id="Left-Arrow-Copy" d="M226,0.301921846 L0.307178569,0.301921846 L0.307178569,62.394793 L226,62.394793 L226,0.301921846 Z M173,19 L13,19 L13,44.0464356 L173,44.0464356 L173,19 Z M195.5,44 C202.403559,44 208,38.4035594 208,31.5 C208,24.5964406 202.403559,19 195.5,19 C188.596441,19 183,24.5964406 183,31.5 C183,38.4035594 188.596441,44 195.5,44 Z"/></g></g></g></svg>